<svg width="61" height="61" viewBox="0 0 61 61" fill="none" xmlns="http://www.w3.org/2000/svg">
<rect x="0.5" y="0.5" width="60" height="60" rx="12.5" fill="#151110" stroke="#291D19"/>
<g clip-path="url(#clip0_497_93)">
<path d="M30.0928 15.0047C26.2001 16.9536 20.7159 23.2088 29.9208 32.6386C30.1587 31.0106 30.5324 29.1161 30.9437 27.2371C31.9752 22.5238 33.2425 17.9089 33.192 17.8456C32.4225 16.8802 31.4042 15.9275 30.0928 15.0047Z" fill="url(#paint0_linear_497_93)"/>
<path fill-rule="evenodd" clip-rule="evenodd" d="M33.193 17.8514C33.2321 17.9005 33.3085 17.9989 33.3085 17.9989C33.3085 17.9989 31.1198 29.437 29.9227 32.6416C29.6194 32.2642 29.1712 31.7459 28.7309 30.8747C28.1119 29.6498 27.0165 26.3647 28.1648 22.9283C29.2594 19.6522 31.3646 18.3589 33.193 17.8514Z" fill="#FFFB64"/>
<path fill-rule="evenodd" clip-rule="evenodd" d="M33.308 18.0001C37.6544 23.6459 33.5854 29.6898 29.9225 32.6417C28.3421 30.9321 26.9529 27.0764 28.3384 22.9941C29.4485 19.7231 31.4965 18.5504 33.308 18.0001Z" fill="url(#paint1_linear_497_93)"/>
<path d="M45.9979 25.754C42.7169 22.9253 34.9122 20.3475 29.9411 32.6665C31.5098 32.2343 33.3731 31.8211 35.2368 31.449C39.9118 30.5155 44.5893 29.84 44.6271 29.7677C45.2033 28.667 45.6712 27.3404 45.9979 25.754Z" fill="url(#paint2_linear_497_93)"/>
<path fill-rule="evenodd" clip-rule="evenodd" d="M44.6338 29.766C44.6044 29.8221 44.545 29.9324 44.545 29.9324C44.545 29.9324 33.3175 32.4905 29.9447 32.6654C30.1691 32.2325 30.4649 31.6087 31.0839 30.8507C31.9542 29.7848 34.5081 27.4504 38.0721 27.1372C41.4698 26.8386 43.462 28.273 44.6338 29.766Z" fill="#FFFB64"/>
<path fill-rule="evenodd" clip-rule="evenodd" d="M44.5464 29.9326C41.1155 36.2319 34.0485 34.8808 29.9449 32.6659C30.881 30.5131 33.8387 27.6766 38.0816 27.3243C41.4813 27.0421 43.3422 28.4722 44.5464 29.9326Z" fill="url(#paint3_linear_497_93)"/>
<path d="M18.1327 45.6077C22.2907 46.8185 30.4746 45.9209 29.9461 32.6438C28.692 33.6892 27.1611 34.8395 25.6131 35.9527C21.7298 38.7451 17.7381 41.3038 17.7333 41.3852C17.6601 42.6265 17.7785 44.0282 18.1327 45.6077Z" fill="url(#paint4_linear_497_93)"/>
<path fill-rule="evenodd" clip-rule="evenodd" d="M17.7339 41.385C17.7376 41.3218 17.7465 41.1967 17.7465 41.1967C17.7465 41.1967 26.9405 34.2042 29.9465 32.6437C29.9197 33.1308 29.9062 33.8213 29.653 34.7682C29.297 36.0996 27.9262 39.2847 24.8026 41.0505C21.8248 42.734 19.417 42.2566 17.7339 41.385Z" fill="#FFFB64"/>
<path fill-rule="evenodd" clip-rule="evenodd" d="M17.7465 41.1971C18.2875 34.0407 25.2914 32.3339 29.9464 32.6441C29.9773 34.9915 28.4445 38.8009 24.7178 40.8842C21.7316 42.5534 19.4456 42.0254 17.7465 41.1971Z" fill="url(#paint5_linear_497_93)"/>
<path d="M41.4602 45.8758C43.0792 41.8087 43.0442 33.4684 29.9516 32.6442C30.8485 34.0151 31.8197 35.6756 32.7528 37.3497C35.0933 41.549 37.1931 45.8337 37.2726 45.8468C38.4839 46.0475 39.8726 46.0714 41.4602 45.8758Z" fill="url(#paint6_linear_497_93)"/>
<path fill-rule="evenodd" clip-rule="evenodd" d="M37.2721 45.8447C37.2104 45.8345 37.0885 45.8127 37.0885 45.8127C37.0885 45.8127 31.1729 35.8312 29.9514 32.6419C30.4269 32.7187 31.1035 32.8029 32.0071 33.1549C33.2776 33.6499 36.2633 35.3571 37.6743 38.6859C39.0195 41.8594 38.3018 44.2374 37.2721 45.8447Z" fill="#FFFB64"/>
<path fill-rule="evenodd" clip-rule="evenodd" d="M37.0884 45.8123C30.1176 44.5354 29.1657 37.3018 29.9515 32.6418C32.2596 32.8507 35.8415 34.785 37.5018 38.754C38.8321 41.9344 38.0773 44.1844 37.0884 45.8123Z" fill="url(#paint7_linear_497_93)"/>
<path d="M13.9746 25.5322C14.2092 29.888 17.7371 37.4099 29.9715 32.6507C28.5825 31.7889 27.0045 30.6968 25.4555 29.5762C21.5698 26.7655 17.8671 23.7764 17.7894 23.798C16.6054 24.1259 15.3343 24.688 13.9746 25.5322Z" fill="url(#paint8_linear_497_93)"/>
<path fill-rule="evenodd" clip-rule="evenodd" d="M17.7863 23.7868C17.8466 23.7701 17.9664 23.7386 17.9664 23.7386C17.9664 23.7386 27.5251 30.2749 29.9718 32.6447C29.5077 32.7753 28.8578 32.9838 27.8893 33.0457C26.5278 33.1327 23.0997 32.8451 20.4223 30.4289C17.8698 28.1254 17.5247 25.6733 17.7863 23.7868Z" fill="#FFFB64"/>
<path fill-rule="evenodd" clip-rule="evenodd" d="M17.9659 23.7365C24.8345 21.9582 28.7326 28.0997 29.9728 32.6447C27.7883 33.427 23.7229 33.1848 20.5501 30.2938C18.0078 27.9773 17.75 25.6248 17.9659 23.7365Z" fill="url(#paint9_linear_497_93)"/>
</g>
<defs>
<linearGradient id="paint0_linear_497_93" x1="30.1135" y1="15.0048" x2="30.0406" y2="32.6391" gradientUnits="userSpaceOnUse">
<stop stop-color="#FFFB64"/>
<stop offset="1" stop-color="#FFBF48"/>
</linearGradient>
<linearGradient id="paint1_linear_497_93" x1="30.1152" y1="15.0127" x2="30.0422" y2="32.6422" gradientUnits="userSpaceOnUse">
<stop stop-color="#FDE14E"/>
<stop offset="1" stop-color="#F9A731"/>
</linearGradient>
<linearGradient id="paint2_linear_497_93" x1="46.0059" y1="25.7733" x2="29.8582" y2="32.4666" gradientUnits="userSpaceOnUse">
<stop stop-color="#FFFB64"/>
<stop offset="1" stop-color="#FFBF48"/>
</linearGradient>
<linearGradient id="paint3_linear_497_93" x1="46.0144" y1="25.7706" x2="29.862" y2="32.4659" gradientUnits="userSpaceOnUse">
<stop stop-color="#FDE14E"/>
<stop offset="1" stop-color="#F9A731"/>
</linearGradient>
<linearGradient id="paint4_linear_497_93" x1="18.1175" y1="45.5934" x2="30.0913" y2="32.7795" gradientUnits="userSpaceOnUse">
<stop stop-color="#FFFB64"/>
<stop offset="1" stop-color="#FFBF48"/>
</linearGradient>
<linearGradient id="paint5_linear_497_93" x1="18.118" y1="45.5934" x2="30.0915" y2="32.7797" gradientUnits="userSpaceOnUse">
<stop stop-color="#FDE14E"/>
<stop offset="1" stop-color="#F9A731"/>
</linearGradient>
<linearGradient id="paint6_linear_497_93" x1="41.4447" y1="45.8897" x2="29.7607" y2="32.8149" gradientUnits="userSpaceOnUse">
<stop stop-color="#FFFB64"/>
<stop offset="1" stop-color="#FFBF48"/>
</linearGradient>
<linearGradient id="paint7_linear_497_93" x1="41.4435" y1="45.8873" x2="29.7594" y2="32.8135" gradientUnits="userSpaceOnUse">
<stop stop-color="#FDE14E"/>
<stop offset="1" stop-color="#F9A731"/>
</linearGradient>
<linearGradient id="paint8_linear_497_93" x1="13.9829" y1="25.5131" x2="30.0413" y2="32.49" gradientUnits="userSpaceOnUse">
<stop stop-color="#FFFB64"/>
<stop offset="1" stop-color="#FFBF48"/>
</linearGradient>
<linearGradient id="paint9_linear_497_93" x1="13.9777" y1="25.5012" x2="30.0448" y2="32.479" gradientUnits="userSpaceOnUse">
<stop stop-color="#FDE14E"/>
<stop offset="1" stop-color="#F9A731"/>
</linearGradient>
<clipPath id="clip0_497_93">
<rect width="32" height="31" fill="white" transform="translate(14 15)"/>
</clipPath>
</defs>
</svg>
