<svg width="61" height="61" viewBox="0 0 61 61" fill="none" xmlns="http://www.w3.org/2000/svg">
<rect x="0.5" y="0.5" width="60" height="60" rx="12.5" fill="#F5F3F2" stroke="#E9E9E9"/>
<g clip-path="url(#clip0_65_161)">
<path d="M30.0928 15.0047C26.2001 16.9536 20.7159 23.2088 29.9208 32.6386C30.1587 31.0106 30.5324 29.1161 30.9437 27.2371C31.9752 22.5238 33.2425 17.9089 33.192 17.8456C32.4225 16.8802 31.4042 15.9275 30.0928 15.0047Z" fill="url(#paint0_linear_65_161)"/>
<path fill-rule="evenodd" clip-rule="evenodd" d="M33.193 17.8516C33.2321 17.9008 33.3085 17.9991 33.3085 17.9991C33.3085 17.9991 31.1198 29.4373 29.9227 32.6419C29.6194 32.2645 29.1712 31.7461 28.7309 30.8749C28.1119 29.65 27.0165 26.3649 28.1648 22.9285C29.2594 19.6525 31.3646 18.3592 33.193 17.8516Z" fill="#FFFB64"/>
<path fill-rule="evenodd" clip-rule="evenodd" d="M33.308 18.0004C37.6544 23.6461 33.5854 29.69 29.9225 32.642C28.3421 30.9324 26.9529 27.0766 28.3384 22.9944C29.4485 19.7234 31.4965 18.5507 33.308 18.0004Z" fill="url(#paint1_linear_65_161)"/>
<path d="M45.9979 25.7543C42.7169 22.9255 34.9122 20.3478 29.9411 32.6668C31.5098 32.2345 33.3731 31.8214 35.2368 31.4492C39.9118 30.5157 44.5893 29.8402 44.6271 29.768C45.2033 28.6672 45.6712 27.3407 45.9979 25.7543Z" fill="url(#paint2_linear_65_161)"/>
<path fill-rule="evenodd" clip-rule="evenodd" d="M44.6338 29.7663C44.6044 29.8223 44.545 29.9326 44.545 29.9326C44.545 29.9326 33.3175 32.4908 29.9447 32.6657C30.1691 32.2328 30.4649 31.609 31.0839 30.8509C31.9542 29.7851 34.5081 27.4507 38.0721 27.1374C41.4698 26.8388 43.462 28.2733 44.6338 29.7663Z" fill="#FFFB64"/>
<path fill-rule="evenodd" clip-rule="evenodd" d="M44.5464 29.9331C41.1155 36.2324 34.0485 34.8813 29.9449 32.6664C30.881 30.5136 33.8387 27.6771 38.0816 27.3248C41.4813 27.0426 43.3422 28.4727 44.5464 29.9331Z" fill="url(#paint3_linear_65_161)"/>
<path d="M18.1327 45.6079C22.2907 46.8187 30.4746 45.9211 29.9461 32.6441C28.692 33.6894 27.1611 34.8398 25.6131 35.953C21.7298 38.7454 17.7381 41.3041 17.7333 41.3855C17.6601 42.6267 17.7785 44.0284 18.1327 45.6079Z" fill="url(#paint4_linear_65_161)"/>
<path fill-rule="evenodd" clip-rule="evenodd" d="M17.7339 41.3855C17.7376 41.3223 17.7465 41.1972 17.7465 41.1972C17.7465 41.1972 26.9405 34.2047 29.9465 32.6442C29.9197 33.1313 29.9062 33.8218 29.653 34.7687C29.297 36.1001 27.9262 39.2852 24.8026 41.051C21.8248 42.7345 19.417 42.257 17.7339 41.3855Z" fill="#FFFB64"/>
<path fill-rule="evenodd" clip-rule="evenodd" d="M17.7465 41.1971C18.2875 34.0407 25.2914 32.3339 29.9464 32.6441C29.9773 34.9915 28.4445 38.8009 24.7178 40.8842C21.7316 42.5534 19.4456 42.0254 17.7465 41.1971Z" fill="url(#paint5_linear_65_161)"/>
<path d="M41.4602 45.8761C43.0792 41.809 43.0442 33.4687 29.9516 32.6445C30.8485 34.0154 31.8197 35.6758 32.7528 37.3499C35.0933 41.5492 37.1931 45.8339 37.2726 45.8471C38.4839 46.0477 39.8726 46.0716 41.4602 45.8761Z" fill="url(#paint6_linear_65_161)"/>
<path fill-rule="evenodd" clip-rule="evenodd" d="M37.2721 45.8452C37.2104 45.835 37.0885 45.8132 37.0885 45.8132C37.0885 45.8132 31.1729 35.8317 29.9514 32.6424C30.4269 32.7192 31.1035 32.8034 32.0071 33.1554C33.2776 33.6503 36.2633 35.3576 37.6743 38.6864C39.0195 41.8599 38.3018 44.2379 37.2721 45.8452Z" fill="#FFFB64"/>
<path fill-rule="evenodd" clip-rule="evenodd" d="M37.0884 45.8127C30.1176 44.5359 29.1657 37.3023 29.9515 32.6423C32.2596 32.8512 35.8415 34.7855 37.5018 38.7545C38.8321 41.9349 38.0773 44.1849 37.0884 45.8127Z" fill="url(#paint7_linear_65_161)"/>
<path d="M13.9746 25.5324C14.2092 29.8883 17.7371 37.4101 29.9715 32.6509C28.5825 31.7892 27.0045 30.697 25.4555 29.5765C21.5698 26.7658 17.8671 23.7767 17.7894 23.7982C16.6054 24.1261 15.3343 24.6883 13.9746 25.5324Z" fill="url(#paint8_linear_65_161)"/>
<path fill-rule="evenodd" clip-rule="evenodd" d="M17.7863 23.7871C17.8466 23.7704 17.9664 23.7388 17.9664 23.7388C17.9664 23.7388 27.5251 30.2752 29.9718 32.6449C29.5077 32.7755 28.8578 32.9841 27.8893 33.0459C26.5278 33.1329 23.0997 32.8453 20.4223 30.4291C17.8698 28.1256 17.5247 25.6736 17.7863 23.7871Z" fill="#FFFB64"/>
<path fill-rule="evenodd" clip-rule="evenodd" d="M17.9659 23.7365C24.8345 21.9582 28.7326 28.0997 29.9728 32.6447C27.7883 33.427 23.7229 33.1848 20.5501 30.2938C18.0078 27.9773 17.75 25.6248 17.9659 23.7365Z" fill="url(#paint9_linear_65_161)"/>
</g>
<defs>
<linearGradient id="paint0_linear_65_161" x1="30.1135" y1="15.0048" x2="30.0406" y2="32.6391" gradientUnits="userSpaceOnUse">
<stop stop-color="#FFFB64"/>
<stop offset="1" stop-color="#FFBF48"/>
</linearGradient>
<linearGradient id="paint1_linear_65_161" x1="30.1152" y1="15.0129" x2="30.0422" y2="32.6425" gradientUnits="userSpaceOnUse">
<stop stop-color="#FDE14E"/>
<stop offset="1" stop-color="#F9A731"/>
</linearGradient>
<linearGradient id="paint2_linear_65_161" x1="46.0059" y1="25.7736" x2="29.8582" y2="32.4669" gradientUnits="userSpaceOnUse">
<stop stop-color="#FFFB64"/>
<stop offset="1" stop-color="#FFBF48"/>
</linearGradient>
<linearGradient id="paint3_linear_65_161" x1="46.0144" y1="25.7711" x2="29.862" y2="32.4663" gradientUnits="userSpaceOnUse">
<stop stop-color="#FDE14E"/>
<stop offset="1" stop-color="#F9A731"/>
</linearGradient>
<linearGradient id="paint4_linear_65_161" x1="18.1175" y1="45.5937" x2="30.0913" y2="32.7797" gradientUnits="userSpaceOnUse">
<stop stop-color="#FFFB64"/>
<stop offset="1" stop-color="#FFBF48"/>
</linearGradient>
<linearGradient id="paint5_linear_65_161" x1="18.118" y1="45.5934" x2="30.0915" y2="32.7797" gradientUnits="userSpaceOnUse">
<stop stop-color="#FDE14E"/>
<stop offset="1" stop-color="#F9A731"/>
</linearGradient>
<linearGradient id="paint6_linear_65_161" x1="41.4447" y1="45.89" x2="29.7607" y2="32.8151" gradientUnits="userSpaceOnUse">
<stop stop-color="#FFFB64"/>
<stop offset="1" stop-color="#FFBF48"/>
</linearGradient>
<linearGradient id="paint7_linear_65_161" x1="41.4435" y1="45.8878" x2="29.7594" y2="32.814" gradientUnits="userSpaceOnUse">
<stop stop-color="#FDE14E"/>
<stop offset="1" stop-color="#F9A731"/>
</linearGradient>
<linearGradient id="paint8_linear_65_161" x1="13.9829" y1="25.5133" x2="30.0413" y2="32.4903" gradientUnits="userSpaceOnUse">
<stop stop-color="#FFFB64"/>
<stop offset="1" stop-color="#FFBF48"/>
</linearGradient>
<linearGradient id="paint9_linear_65_161" x1="13.9777" y1="25.5012" x2="30.0448" y2="32.479" gradientUnits="userSpaceOnUse">
<stop stop-color="#FDE14E"/>
<stop offset="1" stop-color="#F9A731"/>
</linearGradient>
<clipPath id="clip0_65_161">
<rect width="32" height="31" fill="white" transform="translate(14 15)"/>
</clipPath>
</defs>
</svg>
